<svg width="14" height="15" viewBox="0 0 14 15" fill="none" xmlns="http://www.w3.org/2000/svg">
<path d="M7.9668 0C3.87971 0 0.566406 3.31295 0.566406 7.40039C0.566406 11.4878 3.87971 14.8008 7.9668 14.8008C12.0539 14.8008 15.3672 11.4871 15.3672 7.40039C15.3672 3.31365 12.0539 0 7.9668 0ZM7.9668 11.3629C7.79652 11.3625 7.63016 11.3117 7.48875 11.2168C7.34734 11.122 7.23721 10.9873 7.17229 10.8299C7.10737 10.6725 7.09056 10.4994 7.12399 10.3324C7.15742 10.1654 7.2396 10.0121 7.36013 9.89185C7.48065 9.77157 7.63413 9.68971 7.80116 9.65662C7.9682 9.62353 8.14129 9.64069 8.29858 9.70593C8.45586 9.77117 8.59028 9.88157 8.68484 10.0232C8.77941 10.1648 8.82988 10.3312 8.82988 10.5015C8.82988 10.6148 8.80755 10.7269 8.76415 10.8315C8.72075 10.9362 8.65715 11.0312 8.57698 11.1112C8.49682 11.1912 8.40166 11.2546 8.29695 11.2978C8.19225 11.341 8.08006 11.3631 7.9668 11.3629ZM8.82988 7.63242C8.82665 7.85917 8.7343 8.07553 8.57281 8.23474C8.41132 8.39394 8.19366 8.48319 7.96688 8.48319C7.74011 8.48319 7.52245 8.39394 7.36096 8.23474C7.19947 8.07553 7.10712 7.85917 7.10389 7.63242V3.61477C7.10712 3.38802 7.19947 3.17165 7.36096 3.01245C7.52245 2.85325 7.74011 2.764 7.96688 2.764C8.19366 2.764 8.41132 2.85325 8.57281 3.01245C8.7343 3.17165 8.82665 3.38802 8.82988 3.61477V7.63242Z" fill="white"/>
</svg>
