<svg width="22" height="22" viewBox="0 0 16 16" fill="none" xmlns="http://www.w3.org/2000/svg"><path d="M8 0H7.99231H7.98077C3.56923 0.0115385 4.18788e-10 3.58846 0 8C-4.18787e-10 12.4115 3.56923 15.9885 7.98077 16H8C12.4192 16 16 12.4192 16 8C16 3.58077 12.4192 0 8 0ZM8 15.3615H7.99231H7.98077C3.92692 15.35 0.638461 12.0577 0.638461 8C0.638461 3.94231 3.92308 0.65 7.98077 0.642308H8C12.0654 0.642308 15.3615 3.93846 15.3615 8.00385C15.3615 12.0654 12.0654 15.3615 8 15.3615Z" fill="#7474BA"></path><path d="M10.5687 4.71936C9.84409 4.89478 9.09626 5.00003 8.32518 5.02342V7.6781H10.9445C10.9213 6.5827 10.7857 5.58866 10.5687 4.71936ZM8.32131 1.23827V4.43089C9.03814 4.4075 9.7356 4.31395 10.4059 4.15022C9.89834 2.53637 9.10788 1.47606 8.32131 1.23827ZM5.57409 4.14633C6.25218 4.31005 6.95351 4.4075 7.67422 4.43089V1.23047C6.88764 1.46046 6.08556 2.52077 5.57409 4.14633ZM12.8277 3.22245C11.952 2.32586 10.8322 1.67097 9.57673 1.3708C10.1502 1.96723 10.6307 2.87941 10.9755 3.9943C11.6226 3.79549 12.2426 3.53821 12.8277 3.22245ZM11.5374 7.6781H14.7651C14.6953 6.16559 14.1335 4.77783 13.2345 3.67854C12.5719 4.04497 11.8706 4.34513 11.1383 4.56733C11.3746 5.5029 11.5141 6.55931 11.5374 7.6781ZM5.0355 7.6781H7.67809V5.02342C6.89926 5.00003 6.14368 4.89478 5.41523 4.71546C5.19436 5.58476 5.05875 6.5827 5.0355 7.6781ZM10.9445 8.3252H8.32131V10.976C9.09239 10.9994 9.84409 11.1007 10.5687 11.28C10.7857 10.4146 10.9213 9.4167 10.9445 8.3252ZM5.41523 11.2839C6.14368 11.1046 6.89926 10.9994 7.67809 10.976V8.3252H5.0355C5.05875 9.42059 5.19436 10.4185 5.41523 11.2839ZM7.67809 14.7689V11.5685C6.95739 11.5919 6.25218 11.6893 5.57409 11.8531C6.08556 13.4786 6.88764 14.5428 7.67809 14.7689ZM9.57673 14.6325C10.8322 14.3284 11.952 13.6774 12.8315 12.7769C12.2465 12.4612 11.6265 12.2039 10.9794 12.0051C10.6345 13.1239 10.1502 14.0322 9.57673 14.6325ZM6.39942 1.3786C5.15561 1.68266 4.04355 2.33366 3.17173 3.22635C3.75295 3.53821 4.36516 3.79549 5.0045 3.9904C5.34935 2.87941 5.82983 1.97503 6.39942 1.3786ZM11.1383 11.436C11.8745 11.6582 12.5758 11.9583 13.2384 12.3248C14.1373 11.2255 14.6992 9.8377 14.7689 8.3252H11.5412C11.5141 9.44398 11.3746 10.4965 11.1383 11.436ZM8.32131 11.5685V14.765C9.10788 14.5272 9.89834 13.4669 10.4059 11.8492C9.7356 11.6855 9.03814 11.5919 8.32131 11.5685ZM4.84563 4.56343C4.11718 4.34124 3.41972 4.04497 2.76488 3.67854C1.86593 4.77783 1.30409 6.16559 1.23434 7.6781H4.44653C4.46591 6.55541 4.60927 5.499 4.84563 4.56343ZM4.44266 8.3252H1.23047C1.30021 9.8377 1.86206 11.2255 2.761 12.3248C3.41584 11.9622 4.1133 11.6621 4.84176 11.4399C4.60927 10.5043 4.46591 9.44788 4.44266 8.3252ZM3.16786 12.7769C4.03968 13.6696 5.15174 14.3206 6.39942 14.6247C5.82983 14.0283 5.34935 13.12 5.0045 12.009C4.36516 12.2078 3.74907 12.4651 3.16786 12.7769Z" fill="#7474BA"></path></svg>