<svg width="57" height="25" viewBox="0 0 57 25" fill="none" xmlns="http://www.w3.org/2000/svg">
<path d="M0.600067 16.4429C1.99528 20.7682 5.63545 23.9633 10.0669 24.7521C14.4982 25.541 18.9987 23.7951 21.771 20.2116L21.9348 19.9899L31.9415 6.37226L16.5178 1.13448C12.1364 -0.559858 7.18194 0.44277 3.78297 3.71163C0.384012 6.98046 -0.854292 11.9335 0.600067 16.4429ZM9.68297 4.88843C13.9122 3.4952 18.4576 5.83228 19.8355 10.1085C21.2136 14.3846 18.9022 18.9807 14.673 20.374C10.4438 21.7673 5.89834 19.4303 4.5203 15.1541C3.13477 10.875 5.44794 6.27137 9.68296 4.87956L9.68297 4.88843Z" />
<path d="M8.66798 6.62357C10.6531 5.97151 12.7853 7.06982 13.4306 9.07689C14.0759 11.084 12.9901 13.24 11.0052 13.8929C9.02031 14.5458 6.88773 13.4484 6.24159 11.4416C5.59681 9.43376 6.68279 7.27735 8.66798 6.62357Z" />
<path d="M56.4001 8.49667C55.0058 4.17122 51.3661 0.975761 46.9349 0.186841C42.5037 -0.60207 38.0035 1.14417 35.2319 4.72795C35.1735 4.80184 35.1238 4.87574 35.0682 4.94963L25.0615 18.5703L40.4823 23.8051C44.8636 25.4994 49.8182 24.4968 53.2171 21.228C56.616 17.959 57.8544 13.006 56.4001 8.49667ZM47.3171 20.0511C43.0877 21.4428 38.5432 19.1044 37.1665 14.8281C35.7897 10.5518 38.1019 5.95665 42.3311 4.56423C46.5604 3.17181 51.1052 5.50934 52.4827 9.78542C53.8606 14.0626 51.5476 18.659 47.3171 20.0511Z" />
<path d="M48.3489 18.3086C46.364 18.9622 44.2308 17.8651 43.5843 15.8582C42.9378 13.8512 44.0227 11.6943 46.0076 11.0406C47.9924 10.3868 50.1257 11.4836 50.7724 13.4905C51.4191 15.4977 50.334 17.6549 48.3489 18.3086Z" />
</svg>
