<svg width="25" height="25" viewBox="0 0 25 25" fill="none" xmlns="http://www.w3.org/2000/svg">
<circle cx="12.5" cy="12.5" r="12" fill="#7677B7" stroke="#7677B7"/>
<path d="M14.403 14.103H14.103V14.403V18.597C14.103 18.7575 14.0731 18.9 14.0166 19.0282C13.9561 19.1651 13.8772 19.2806 13.7804 19.3774C13.685 19.4728 13.5684 19.5516 13.4266 19.6123C13.2897 19.671 13.1483 19.7 13 19.7C12.8395 19.7 12.697 19.6701 12.5689 19.6136C12.4319 19.5532 12.3164 19.4742 12.2196 19.3774C12.1228 19.2806 12.0439 19.1651 11.9834 19.0282C11.9269 18.9 11.897 18.7575 11.897 18.597V14.403V14.103H11.597H7.40298C7.24245 14.103 7.09999 14.0731 6.97184 14.0166C6.83487 13.9561 6.7194 13.8772 6.62258 13.7804C6.52576 13.6836 6.44684 13.5681 6.38642 13.4311C6.32988 13.303 6.3 13.1605 6.3 13C6.3 12.8517 6.32903 12.7103 6.38768 12.5734C6.44844 12.4316 6.52721 12.315 6.62258 12.2196C6.7194 12.1228 6.83487 12.0439 6.97184 11.9834C7.09999 11.9269 7.24245 11.897 7.40298 11.897H11.597H11.897V11.597V7.40298C11.897 7.25464 11.926 7.11325 11.9847 6.97638C12.0455 6.83461 12.1242 6.71795 12.2196 6.62258C12.3164 6.52576 12.4319 6.44684 12.5689 6.38642C12.697 6.32988 12.8395 6.3 13 6.3C13.3087 6.3 13.5632 6.40539 13.7804 6.62258C13.9976 6.83977 14.103 7.09424 14.103 7.40298V11.597V11.897H14.403H18.597C18.7454 11.897 18.8868 11.926 19.0236 11.9847C19.1654 12.0455 19.282 12.1242 19.3774 12.2196C19.4728 12.315 19.5516 12.4316 19.6123 12.5734C19.671 12.7103 19.7 12.8517 19.7 13C19.7 13.1605 19.6701 13.303 19.6136 13.4311C19.5532 13.5681 19.4742 13.6836 19.3774 13.7804C19.282 13.8758 19.1654 13.9545 19.0236 14.0153C18.8867 14.074 18.7454 14.103 18.597 14.103H14.403Z" fill="white" stroke="#7677B7" stroke-width="0.6"/>
</svg>