<svg width="19" height="19" viewBox="0 0 19 19" fill="none" xmlns="http://www.w3.org/2000/svg">
<path d="M14.6925 12.7497L14.5478 12.956L14.7259 13.1341L18.3527 16.7615L18.3527 16.7615L18.3564 16.7651C18.4639 16.8689 18.5497 16.9931 18.6086 17.1304C18.6676 17.2677 18.6987 17.4154 18.7 17.5648C18.7013 17.7143 18.6728 17.8625 18.6162 18.0008C18.5596 18.1391 18.476 18.2647 18.3704 18.3704L18.5825 18.5825L18.3704 18.3704C18.2647 18.476 18.1391 18.5596 18.0008 18.6162C17.8624 18.6728 17.7143 18.7013 17.5648 18.7C17.4154 18.6987 17.2677 18.6676 17.1304 18.6086C16.9931 18.5497 16.8689 18.4639 16.7651 18.3564L16.7652 18.3564L16.7615 18.3527L13.1341 14.7259L12.9559 14.5477L12.7496 14.6926C11.4207 15.6259 9.83575 16.1254 8.21187 16.1228H8.21139C3.84205 16.1228 0.3 12.5807 0.3 8.21138C0.3 3.84205 3.84205 0.3 8.21139 0.3C12.5807 0.3 16.1228 3.84205 16.1228 8.21138C16.1228 9.90041 15.5939 11.465 14.6925 12.7497ZM8.21139 2.55078C6.7101 2.55078 5.2703 3.14716 4.20873 4.20873C3.14716 5.2703 2.55078 6.7101 2.55078 8.21138C2.55078 9.71267 3.14716 11.1525 4.20873 12.214C5.2703 13.2756 6.7101 13.872 8.21139 13.872C9.71267 13.872 11.1525 13.2756 12.214 12.214C13.2756 11.1525 13.872 9.71267 13.872 8.21138C13.872 6.7101 13.2756 5.2703 12.214 4.20873C11.1525 3.14716 9.71267 2.55078 8.21139 2.55078Z" fill="#7C7AA2" stroke="white"/>
</svg>