<svg width="18" height="18" viewBox="0 0 18 18" fill="none" xmlns="http://www.w3.org/2000/svg">
<path d="M9 0.25C11.4742 0.315 13.5348 1.17104 15.1819 2.81813C16.829 4.46521 17.685 6.52583 17.75 9C17.685 11.4742 16.829 13.5348 15.1819 15.1819C13.5348 16.829 11.4742 17.685 9 17.75C6.52583 17.685 4.46521 16.829 2.81813 15.1819C1.17104 13.5348 0.315 11.4742 0.25 9C0.315 6.52583 1.17104 4.46521 2.81813 2.81813C4.46521 1.17104 6.52583 0.315 9 0.25ZM10.3088 5.62125C10.6475 5.62125 10.9275 5.52042 11.1488 5.31875C11.37 5.11708 11.4806 4.84687 11.4806 4.50812C11.4806 4.16937 11.37 3.89917 11.1488 3.6975C10.9275 3.49583 10.6508 3.395 10.3188 3.395C9.98667 3.395 9.71 3.49583 9.48875 3.6975C9.2675 3.89917 9.15687 4.16937 9.15687 4.50812C9.15687 4.84687 9.2675 5.11708 9.48875 5.31875C9.71 5.52042 9.98354 5.62125 10.3094 5.62125H10.3088ZM10.5431 12.6525C10.5431 12.5742 10.5496 12.47 10.5625 12.34C10.5754 12.21 10.5754 12.0863 10.5625 11.9688L9.5275 13.16C9.42333 13.2771 9.31583 13.3683 9.205 13.4338C9.09417 13.4992 8.99979 13.5188 8.92188 13.4925C8.80479 13.4404 8.75271 13.3492 8.76562 13.2188L10.4844 7.80875C10.5494 7.44417 10.4908 7.13167 10.3088 6.87125C10.1267 6.61083 9.83375 6.45458 9.43 6.4025C8.97417 6.41542 8.47604 6.6075 7.93563 6.97875C7.39521 7.35 6.92313 7.82208 6.51937 8.395V8.68813C6.50646 8.81854 6.50646 8.94229 6.51937 9.05937L7.55438 7.86812C7.65854 7.75104 7.76604 7.65979 7.87687 7.59438C7.98771 7.52896 8.07562 7.50937 8.14062 7.53562C8.27104 7.60062 8.31667 7.70479 8.2775 7.84812L6.57812 13.2387C6.48688 13.5642 6.5325 13.854 6.715 14.1081C6.8975 14.3623 7.21646 14.5348 7.67188 14.6256C8.32312 14.6127 8.87 14.424 9.3125 14.0594C9.755 13.6948 10.1652 13.226 10.5431 12.6531V12.6525Z" fill="#7876FF"/>
</svg>