<svg width="39" height="36" viewBox="0 0 39 36" fill="none" xmlns="http://www.w3.org/2000/svg">
<path d="M38.3626 26.7797C38.3626 28.2297 37.1503 29.4065 35.6565 29.4065H3.27051C1.77676 29.4065 0.564453 28.2297 0.564453 26.7797V3.22251C0.564453 1.77251 1.77676 0.595703 3.27051 0.595703H35.6565C37.1503 0.595703 38.3626 1.77251 38.3626 3.22251V26.7797ZM11.3455 22.871H7.27556V18.9833C7.27556 18.2688 6.66944 17.6804 5.9334 17.6804C5.19735 17.6804 4.59094 18.2478 4.59094 18.9833V22.871C4.59094 24.321 5.80325 25.4978 7.29699 25.4978H11.3455C12.0815 25.4978 12.6877 24.8884 12.6877 24.1739C12.6877 23.4594 12.1032 22.871 11.3455 22.871ZM11.3455 4.50439H7.31872C5.82498 4.50439 4.61267 5.6812 4.61267 7.13119V11.0819C4.61267 11.7964 5.21878 12.3848 5.95483 12.3848C6.69088 12.3848 7.29699 11.7964 7.29699 11.0819V7.13119H11.3455C12.1032 7.13119 12.7093 6.54279 12.6877 5.80728C12.6877 5.09279 12.1032 4.50439 11.3455 4.50439ZM34.3144 19.0044C34.3144 18.2899 33.7082 17.7015 32.9722 17.7015C32.2361 17.7015 31.63 18.2688 31.63 19.0044V22.892H27.5166C26.7806 22.892 26.1745 23.4804 26.1745 24.1949C26.1745 24.9094 26.7589 25.4978 27.5166 25.4978H31.6515C33.1236 25.4978 34.3361 24.321 34.3361 22.871H34.3144V19.0044ZM31.63 4.52541H27.5818C26.8458 4.52541 26.2394 5.11381 26.2394 5.8283C26.2394 6.54279 26.8241 7.13119 27.5818 7.13119H31.6515V11.0819C31.6515 11.7964 32.2362 12.3848 32.9939 12.3848C33.73 12.3848 34.3361 11.8174 34.3361 11.0819V7.15221C34.3361 5.70221 33.1238 4.52541 31.63 4.52541ZM36.9987 32.0123H1.92834C1.17065 32.0123 0.564453 32.7058 0.564453 33.5884C0.564453 34.471 1.17065 35.1645 1.92834 35.1645H36.9987C37.7564 35.1645 38.3626 34.45 38.3626 33.5884C38.3626 32.7058 37.7564 32.0123 36.9987 32.0123Z" fill="#7474BA"/>
<path d="M38.3626 26.7797C38.3626 28.2297 37.1503 29.4065 35.6565 29.4065H3.27051C1.77676 29.4065 0.564453 28.2297 0.564453 26.7797V3.22251C0.564453 1.77251 1.77676 0.595703 3.27051 0.595703H35.6565C37.1503 0.595703 38.3626 1.77251 38.3626 3.22251V26.7797ZM11.3455 22.871H7.27556V18.9833C7.27556 18.2688 6.66944 17.6804 5.9334 17.6804C5.19735 17.6804 4.59094 18.2478 4.59094 18.9833V22.871C4.59094 24.321 5.80325 25.4978 7.29699 25.4978H11.3455C12.0815 25.4978 12.6877 24.8884 12.6877 24.1739C12.6877 23.4594 12.1032 22.871 11.3455 22.871ZM11.3455 4.50439H7.31872C5.82498 4.50439 4.61267 5.6812 4.61267 7.13119V11.0819C4.61267 11.7964 5.21878 12.3848 5.95483 12.3848C6.69088 12.3848 7.29699 11.7964 7.29699 11.0819V7.13119H11.3455C12.1032 7.13119 12.7093 6.54279 12.6877 5.80728C12.6877 5.09279 12.1032 4.50439 11.3455 4.50439ZM34.3144 19.0044C34.3144 18.2899 33.7082 17.7015 32.9722 17.7015C32.2361 17.7015 31.63 18.2688 31.63 19.0044V22.892H27.5166C26.7806 22.892 26.1745 23.4804 26.1745 24.1949C26.1745 24.9094 26.7589 25.4978 27.5166 25.4978H31.6515C33.1236 25.4978 34.3361 24.321 34.3361 22.871H34.3144V19.0044ZM31.63 4.52541H27.5818C26.8458 4.52541 26.2394 5.11381 26.2394 5.8283C26.2394 6.54279 26.8241 7.13119 27.5818 7.13119H31.6515V11.0819C31.6515 11.7964 32.2362 12.3848 32.9939 12.3848C33.73 12.3848 34.3361 11.8174 34.3361 11.0819V7.15221C34.3361 5.70221 33.1238 4.52541 31.63 4.52541ZM36.9987 32.0123H1.92834C1.17065 32.0123 0.564453 32.7058 0.564453 33.5884C0.564453 34.471 1.17065 35.1645 1.92834 35.1645H36.9987C37.7564 35.1645 38.3626 34.45 38.3626 33.5884C38.3626 32.7058 37.7564 32.0123 36.9987 32.0123Z" fill="#7474BA"/>
</svg>