<svg width="25" height="25" viewBox="0 0 37 36" fill="none" xmlns="http://www.w3.org/2000/svg">
<path d="M27.4804 31.815C27.4804 32.13 27.3474 32.445 26.7465 32.8905C24.1587 34.3499 21.201 35.1159 18.1894 35.1067C15.1866 35.1155 12.2347 34.3727 9.63224 32.9535C9.23087 32.6385 9.02899 32.319 9.02899 31.8757C9.02899 31.2457 9.40899 30.7755 10.0217 30.6855L10.2355 30.672H10.6345L10.7675 30.735C15.0045 33.0457 20.5335 33.138 24.875 31.014L25.407 30.735L25.7419 30.609H26.0744C26.8106 30.609 27.3497 31.1782 27.4804 31.815ZM18.1632 0C20.7282 0 22.7517 1.9935 22.8871 4.37625C22.8871 6.25275 21.6901 7.902 19.9184 8.5185L19.5787 8.622H19.5122V12.933H19.5787C22.8182 13.5787 25.1125 16.2135 25.1125 19.3005C25.1125 19.818 25.0294 20.3715 24.856 20.9722L24.7087 21.4245V21.492L28.5562 23.6137L28.6251 23.5485C29.4765 22.7697 30.6122 22.332 31.7957 22.3267C32.4014 22.3267 33.2801 22.3267 34.0924 22.8442C35.1682 23.4202 35.9781 24.4485 36.2512 25.6072C36.5196 26.766 36.5196 27.666 35.6409 29.0835C34.8334 30.3052 33.7527 30.9487 32.3349 31.1422C32.1995 31.2075 31.9976 31.2075 31.7957 31.2075C30.784 31.2075 29.7057 30.9487 29.0289 30.4965C27.4542 29.4772 26.642 27.783 26.8676 26.0977L26.9389 25.7377V25.6702L23.1579 23.6137L23.089 23.679C22.4507 24.3929 21.6541 24.9647 20.7559 25.3536C19.8577 25.7425 18.88 25.939 17.8925 25.929C16.0797 25.908 14.3482 25.2131 13.0712 23.994L12.7625 23.679L12.6936 23.6115L8.91737 25.6725V25.7377C9.45649 27.7312 8.58012 29.6617 6.82499 30.5617C6.41887 30.69 5.60899 31.0792 4.52837 31.0792C2.77324 31.0792 1.22237 30.24 0.545493 28.8247C-0.060132 27.8595 -0.060132 26.6377 0.210618 25.479C0.481368 24.3225 1.22237 23.3572 2.30062 22.8397C2.77562 22.6462 3.65199 22.3267 4.59724 22.3267C5.54012 22.3267 6.59224 22.671 7.42349 23.2312L7.76787 23.4832L7.83674 23.5507L11.6842 21.4245V21.3615C11.4073 20.6845 11.2695 19.9635 11.2781 19.2375C11.2781 16.2787 13.3847 13.6732 16.4129 12.951L16.8119 12.8677H16.9496V8.685H16.8807C14.8549 8.04375 13.5747 6.36975 13.5747 4.4415C13.5747 1.9935 15.5959 0 18.1632 0ZM3.45012 24.9007C2.91099 25.2225 2.57137 25.6072 2.43837 26.1225C2.30062 26.64 2.43837 27.1507 2.70912 27.603C2.89543 27.9065 3.16016 28.1601 3.47841 28.34C3.79666 28.5198 4.15797 28.6201 4.52837 28.6312C5.00337 28.6312 5.27174 28.566 5.60899 28.3095C6.08162 28.053 6.48774 27.666 6.62312 27.1507C6.68962 26.7007 6.68962 26.1225 6.28349 25.6072C6.09676 25.3031 5.83128 25.0491 5.51214 24.8692C5.19299 24.6893 4.8307 24.5894 4.45949 24.579C4.05574 24.579 3.78737 24.7072 3.45012 24.9007ZM31.7269 24.579C31.365 24.6204 31.0182 24.7407 30.7137 24.9304C30.4092 25.1201 30.1552 25.3741 29.9717 25.6725C29.8154 25.8478 29.7085 26.0578 29.6612 26.2829C29.6138 26.508 29.6275 26.7408 29.701 26.9595C29.8387 27.54 30.2425 27.927 30.7151 28.2465C31.0524 28.5052 31.525 28.5682 31.9287 28.5682C32.6056 28.5682 33.2112 28.2465 33.615 27.6007C34.09 26.6377 33.9546 25.6725 33.1447 25.029C32.9885 24.8751 32.7988 24.7552 32.5889 24.6775C32.379 24.5998 32.1537 24.5662 31.9287 24.579H31.7269ZM11.7745 5.8365C11.974 6.09075 11.974 6.40575 11.9075 6.723C11.7745 6.97725 11.6391 7.2315 11.3042 7.4205C6.99362 9.738 4.16737 13.995 3.96549 18.6615L3.95362 19.206V19.458C4.02249 19.7752 3.88474 20.0272 3.62112 20.2815C3.35274 20.4705 3.08437 20.6617 2.68537 20.7247C2.4194 20.7309 2.15795 20.6589 1.93685 20.5187C1.71576 20.3785 1.54583 20.177 1.45037 19.9417L1.40999 19.7752V19.2667C1.42035 16.4382 2.22414 13.6632 3.73903 11.2258C5.25392 8.78836 7.42547 6.77625 10.0312 5.3955C10.3685 5.202 10.6345 5.14125 11.0359 5.265C11.3755 5.3325 11.575 5.51925 11.7769 5.8365H11.7745ZM24.381 5.8365C24.1815 6.09075 24.1815 6.40575 24.248 6.723C24.381 6.97725 24.5164 7.2315 24.8489 7.4205C29.1619 9.738 31.9881 13.995 32.1924 18.6615L32.2042 19.206V19.458C32.133 19.7752 32.2707 20.0272 32.5367 20.2815C32.8027 20.4705 33.0711 20.6617 33.4725 20.7247C33.7385 20.7309 33.9999 20.6589 34.221 20.5187C34.4421 20.3785 34.612 20.177 34.7075 19.9417L34.7479 19.7752V19.2667C34.7373 16.438 33.9331 13.6628 32.4178 11.2254C30.9025 8.78795 28.7305 6.77596 26.1242 5.3955C25.787 5.202 25.521 5.14125 25.1172 5.265C24.78 5.3325 24.5781 5.51925 24.381 5.8365ZM16.0044 4.4415C16.0044 5.46975 16.9472 6.435 18.0944 6.435C19.2439 6.435 20.1844 5.53275 20.1844 4.4415C20.1844 3.9147 19.9648 3.40921 19.5734 3.03503C19.182 2.66084 18.6504 2.44825 18.0944 2.4435C17.5383 2.44825 17.0068 2.66084 16.6153 3.03503C16.2239 3.40921 16.0043 3.9147 16.0044 4.4415Z" fill="#151787"/>
</svg>