<svg width="18" height="18" viewBox="0 0 18 18" fill="none" xmlns="http://www.w3.org/2000/svg">
<path d="M13.3784 12.5748C13.1979 12.5748 13.0249 12.5031 12.8973 12.3755C12.7697 12.2479 12.698 12.0749 12.698 11.8944C12.698 11.714 12.7697 11.5409 12.8973 11.4133C13.0249 11.2857 13.1979 11.214 13.3784 11.214C13.5529 11.214 13.7202 11.1447 13.8436 11.0213C13.967 10.8979 14.0363 10.7306 14.0363 10.5561V4.65932C14.0363 4.48484 13.967 4.3175 13.8436 4.19412C13.7202 4.07074 13.5529 4.00143 13.3784 4.00143H7.48159C7.3071 4.00143 7.13977 4.07074 7.01639 4.19412C6.89301 4.3175 6.82369 4.48484 6.82369 4.65932C6.82369 4.83978 6.75201 5.01284 6.62441 5.14044C6.49681 5.26804 6.32374 5.33973 6.14329 5.33973C5.96284 5.33973 5.78977 5.26804 5.66217 5.14044C5.53458 5.01284 5.46289 4.83978 5.46289 4.65932C5.46408 4.1243 5.67714 3.61152 6.05547 3.2332C6.43379 2.85488 6.94656 2.64181 7.48159 2.64062H13.3784C13.9134 2.64181 14.4262 2.85488 14.8045 3.2332C15.1828 3.61152 15.3959 4.1243 15.3971 4.65932V10.5561C15.3959 11.0912 15.1828 11.6039 14.8045 11.9822C14.4262 12.3606 13.9134 12.5736 13.3784 12.5748Z" fill="#7B7CB2"/>
<path d="M10.3616 15.5249H4.71413C4.43404 15.5253 4.15663 15.4704 3.89779 15.3634C3.63896 15.2564 3.40377 15.0993 3.20572 14.9013C3.00766 14.7032 2.85063 14.468 2.74361 14.2092C2.63658 13.9503 2.58168 13.6729 2.58203 13.3928V7.72285C2.58156 7.44268 2.63638 7.16517 2.74335 6.90623C2.85032 6.64729 3.00733 6.412 3.2054 6.21385C3.40347 6.0157 3.63869 5.85858 3.89759 5.7515C4.15648 5.64443 4.43397 5.58949 4.71413 5.58985H10.3616C10.6417 5.58949 10.9191 5.6444 11.178 5.75142C11.4368 5.85844 11.672 6.01548 11.87 6.21353C12.0681 6.41159 12.2251 6.64677 12.3322 6.90561C12.4392 7.16445 12.4941 7.44185 12.4937 7.72195V13.3919C12.5162 14.5718 11.5415 15.5249 10.3616 15.5249ZM4.71413 6.95065C4.61261 6.94981 4.51194 6.96918 4.41798 7.00765C4.32402 7.04611 4.23866 7.10289 4.16687 7.17468C4.09508 7.24647 4.0383 7.33183 3.99984 7.42579C3.96137 7.51975 3.94199 7.62042 3.94283 7.72195V13.3919C3.94199 13.4935 3.96137 13.5941 3.99984 13.6881C4.0383 13.7821 4.09508 13.8674 4.16687 13.9392C4.23866 14.011 4.32402 14.0678 4.41798 14.1062C4.51194 14.1447 4.61261 14.1641 4.71413 14.1632H10.3616C10.4632 14.1641 10.5638 14.1447 10.6578 14.1062C10.7517 14.0678 10.8371 14.011 10.9089 13.9392C10.9807 13.8674 11.0375 13.7821 11.0759 13.6881C11.1144 13.5941 11.1338 13.4935 11.1329 13.3919V7.72195C11.1338 7.62042 11.1144 7.51975 11.0759 7.42579C11.0375 7.33183 10.9807 7.24647 10.9089 7.17468C10.8371 7.10289 10.7517 7.04611 10.6578 7.00765C10.5638 6.96918 10.4632 6.94981 10.3616 6.95065H4.71413Z" fill="#7B7CB2"/>
</svg>