<svg t="1668151536009" class="icon" viewBox="0 0 1024 1024" version="1.1" xmlns="http://www.w3.org/2000/svg" p-id="1981" width="22" height="22"><path d="M864 256H673.386667c-8.213333 0-16-3.093333-21.973334-8.746667l-98.986666-93.226666c-17.92-16.853333-41.28-26.133333-65.813334-26.133334H160c-52.906667 0-96 43.093333-96 96v576c0 52.906667 43.093333 96 96 96h256c17.706667 0 32-14.293333 32-32s-14.293333-32-32-32H160c-17.6 0-32-14.4-32-32V224c0-17.6 14.4-32 32-32h326.613333c8.213333 0 16 3.093333 21.973334 8.746667l98.986666 93.226666c17.92 16.853333 41.28 26.133333 65.813334 26.133334H864c17.6 0 32 14.4 32 32v192c0 17.706667 14.293333 32 32 32s32-14.293333 32-32V352c0-52.906667-43.093333-96-96-96z" p-id="1982" fill="#13227a"></path><path d="M594.346667 611.52l-69.76-69.76 67.84-67.84c12.48-12.48 12.48-32.746667 0-45.226667s-32.746667-12.48-45.226667 0l-67.84 67.84-56.533333-56.533333 67.84-67.84c12.48-12.48 12.48-32.746667 0-45.226667s-32.746667-12.48-45.226667 0L377.493333 394.666667l-50.88-50.88c-12.48-12.48-32.746667-12.48-45.226666 0s-12.48 32.746667 0 45.226666l267.733333 267.733334c-23.04 32.32-35.52 70.826667-35.52 111.253333 0 51.306667 19.946667 99.52 56.213333 135.786667 37.44 37.44 86.613333 56.106667 135.786667 56.106666s98.346667-18.666667 135.786667-56.106666c74.88-74.88 74.88-196.693333 0-271.573334-67.093333-67.093333-172.053333-74.026667-247.04-20.693333z m201.813333 247.04c-49.92 49.92-131.093333 49.92-181.013333 0-49.92-49.92-49.92-131.093333 0-181.013333 24.96-24.96 57.706667-37.44 90.56-37.44s65.6 12.48 90.56 37.44c49.813333 49.813333 49.813333 131.093333-0.106667 181.013333z" p-id="1983" fill="#13227a"></path></svg>