<svg width="40" height="36" viewBox="0 0 44 38" fill="none" xmlns="http://www.w3.org/2000/svg">
<rect width="44" height="37.5137" rx="6" fill="#F7F7FF"/>
<path d="M25.7444 16.38C25.5294 16.2802 25.4314 16.1461 25.4503 15.9777C25.4693 15.8093 25.542 15.6752 25.6685 15.5754C25.7065 15.5505 25.8298 15.4538 26.0385 15.2854C26.2472 15.1171 26.5033 14.9144 26.8069 14.6774C26.2757 14.0787 25.6432 13.6078 24.9096 13.2648C24.176 12.9218 23.3791 12.7503 22.519 12.7503C21.7221 12.7503 20.9758 12.8969 20.2801 13.19C19.5844 13.4831 18.9773 13.8853 18.4587 14.3967C17.9401 14.9081 17.5322 15.5068 17.2349 16.1929C16.9377 16.8789 16.7891 17.6148 16.7891 18.4006C16.7891 19.1739 16.9377 19.9036 17.2349 20.5896C17.5322 21.2756 17.9401 21.8743 18.4587 22.3857C18.9773 22.8971 19.5844 23.2994 20.2801 23.5925C20.9758 23.8856 21.7221 24.0321 22.519 24.0321C23.1767 24.0321 23.7997 23.9292 24.3878 23.7234C24.976 23.5176 25.5136 23.2276 26.0006 22.8534C26.4875 22.4793 26.9049 22.0396 27.2528 21.5344C27.6006 21.0293 27.8568 20.4773 28.0212 19.8786C28.1097 19.5918 28.2742 19.3548 28.5145 19.1677C28.7548 18.9806 29.0394 18.887 29.3683 18.887C29.7604 18.887 30.0924 19.0242 30.3644 19.2986C30.6363 19.573 30.7723 19.8973 30.7723 20.2715C30.7723 20.4462 30.7407 20.6145 30.6775 20.7767C30.4118 21.6498 30.0197 22.4543 29.5011 23.1902C28.9825 23.9261 28.3659 24.5591 27.6512 25.0892C26.9366 25.6193 26.1429 26.0341 25.2701 26.3334C24.3973 26.6328 23.4803 26.7824 22.519 26.7824C21.3426 26.7824 20.2359 26.5642 19.1987 26.1276C18.1615 25.6911 17.2602 25.0924 16.495 24.3315C15.7297 23.5706 15.1226 22.6819 14.6735 21.6654C14.2245 20.6488 14 19.5606 14 18.4006C14 17.2406 14.2245 16.1492 14.6735 15.1264C15.1226 14.1036 15.7297 13.2149 16.495 12.4603C17.2602 11.7057 18.1615 11.107 19.1987 10.6642C20.2359 10.2214 21.3426 10 22.519 10C23.8218 10 25.0298 10.2651 26.1429 10.7952C27.256 11.3253 28.2046 12.0456 28.9888 12.9561C29.2798 12.7441 29.5233 12.5601 29.7193 12.4042C29.9154 12.2483 30.0387 12.1516 30.0893 12.1142C30.1652 12.0518 30.2474 12.005 30.3359 11.9739C30.4245 11.9427 30.5067 11.9427 30.5826 11.9739C30.6585 12.005 30.7249 12.0705 30.7818 12.1703C30.8387 12.2701 30.8798 12.4198 30.9051 12.6193C30.9178 12.7316 30.9304 12.9218 30.9431 13.19C30.9557 13.4581 30.9684 13.77 30.981 14.1255C30.9937 14.4809 31 14.8489 31 15.2293C31 15.6097 30.9937 15.9683 30.981 16.3051C30.9684 16.7292 30.8672 17.0348 30.6775 17.2219C30.5763 17.3217 30.4245 17.3778 30.2221 17.3903C30.0197 17.4027 29.8047 17.384 29.577 17.3341C29.2355 17.2593 28.8592 17.1782 28.4481 17.0909C28.037 17.0036 27.6449 16.9132 27.2718 16.8196C26.8986 16.7261 26.5698 16.6388 26.2852 16.5577C26.0006 16.4766 25.8203 16.4174 25.7444 16.38Z" fill="#7976A5"/>
</svg>