<svg width="21" height="21" viewBox="0 0 21 21" fill="none" xmlns="http://www.w3.org/2000/svg">
<path d="M10.3965 0C4.65465 0 0 4.51833 0 10.092C0 15.6656 4.65465 20.184 10.3965 20.184C16.1382 20.184 20.7929 15.6656 20.7929 10.092C20.7929 4.51833 16.1382 0 10.3965 0ZM2.05246 10.8071C1.64237 10.8071 1.30987 10.4843 1.30987 10.0862C1.30987 9.68809 1.64237 9.36533 2.05246 9.36533C2.46261 9.36533 2.79508 9.68809 2.79508 10.0862C2.7951 10.4843 2.46261 10.8071 2.05246 10.8071ZM10.3964 1.27151C10.8066 1.27151 11.1391 1.59427 11.1391 1.9924C11.1391 2.39051 10.8066 2.71327 10.3964 2.71327C9.98634 2.71327 9.65384 2.39051 9.65384 1.9924C9.65384 1.59424 9.98634 1.27151 10.3964 1.27151ZM10.3964 18.9805C9.98634 18.9805 9.65384 18.6577 9.65384 18.2596C9.65384 17.8615 9.98634 17.5387 10.3964 17.5387C10.8066 17.5387 11.1391 17.8615 11.1391 18.2596C11.139 18.6577 10.8066 18.9805 10.3964 18.9805ZM16.499 5.75078L12.493 9.38514C12.8108 10.1655 12.6447 11.0886 11.9945 11.7198C11.1209 12.5678 9.70466 12.5678 8.83114 11.7198C8.17843 11.0862 8.01352 10.1585 8.33619 9.37624L5.57884 6.95394C5.23528 6.62044 5.23531 6.07977 5.57881 5.74633C5.92236 5.41284 6.47935 5.41284 6.82287 5.74633L9.58025 8.16863C10.1165 7.96023 10.719 7.96133 11.2545 8.17209L15.2549 4.54313C15.5984 4.20966 16.1555 4.20966 16.499 4.54313C16.8425 4.87662 16.8425 5.41729 16.499 5.75078ZM18.7404 10.8128C18.3303 10.8128 17.9978 10.4901 17.9978 10.092C17.9978 9.69386 18.3303 9.3711 18.7404 9.3711C19.1505 9.3711 19.483 9.69386 19.483 10.092C19.483 10.4901 19.1505 10.8128 18.7404 10.8128Z" fill="#7677B7"/>
</svg>