<svg width="14" height="14" viewBox="0 0 14 14" fill="none" xmlns="http://www.w3.org/2000/svg">
<path d="M13.1903 3.0686C13.5145 2.72635 13.7521 2.41261 13.903 2.12739C14.0539 1.84217 14.0287 1.51703 13.8275 1.15195C13.7828 1.0835 13.7213 1.00078 13.6431 0.903811C13.5648 0.806838 13.4838 0.712716 13.3999 0.621448C13.3161 0.530178 13.2322 0.447465 13.1484 0.373308C13.0646 0.299152 12.9947 0.244961 12.9388 0.210734C12.6593 0.0396051 12.3295 -0.00602913 11.9495 0.0738316C11.5694 0.153692 11.2284 0.347639 10.9266 0.655673L10.2223 1.37442L9.28327 2.33275L8.17656 3.4622L6.96923 4.69434L4.82287 2.50387C4.16331 1.83076 3.62672 1.27744 3.21309 0.843915C2.78829 0.410386 2.36629 0.142283 1.94708 0.0396051C1.52786 -0.0630732 1.15616 0.0339012 0.831973 0.330526L0.714594 0.450316L0.530141 0.63856L0.345688 0.826802C0.278614 0.895254 0.239488 0.940889 0.228309 0.963707C0.10534 1.12343 0.032677 1.286 0.010319 1.45143C-0.0120389 1.61685 0.00193489 1.77943 0.0522402 1.93915C0.102546 2.09887 0.178004 2.25288 0.278614 2.4012C0.379225 2.54951 0.491015 2.68641 0.613983 2.81191C0.714594 2.90318 0.893458 3.07431 1.15057 3.3253L2.05607 4.28363C2.42498 4.6487 2.8358 5.05941 3.28855 5.51576C3.7413 5.97211 4.21361 6.45127 4.70549 6.95325C4.1689 7.50087 3.65746 8.01996 3.17117 8.51053C2.68489 9.00111 2.24891 9.44034 1.86323 9.82823C1.47756 10.2161 1.16175 10.5327 0.915816 10.778C0.669878 11.0233 0.518962 11.1745 0.463067 11.2315C0.172414 11.5281 0.0242928 11.8219 0.0187033 12.1128C0.0131138 12.4037 0.11093 12.6975 0.312151 12.9941C0.401583 13.1082 0.530141 13.2423 0.697826 13.3963C0.86551 13.5503 0.982889 13.6501 1.04996 13.6958C1.38533 13.9239 1.68716 14.0238 1.95546 13.9952C2.22375 13.9667 2.49205 13.8099 2.76035 13.5246L3.28017 12.9941C3.53728 12.7317 3.85588 12.4123 4.23597 12.0358C4.61605 11.6593 5.04365 11.2344 5.51876 10.7609C5.99386 10.2874 6.48853 9.79401 7.00276 9.28062C7.42757 9.71415 7.84398 10.1363 8.25201 10.547C8.66005 10.9577 9.04013 11.3427 9.39227 11.7021C9.74441 12.0615 10.063 12.3838 10.3481 12.669C10.6331 12.9542 10.8707 13.1938 11.0607 13.3877C11.329 13.6501 11.6197 13.8241 11.9327 13.9097C12.2457 13.9952 12.5475 13.9239 12.8382 13.6958C12.8494 13.6844 12.8857 13.6558 12.9472 13.6102C13.0087 13.5646 13.0701 13.5132 13.1316 13.4562C13.1931 13.3991 13.2518 13.345 13.3077 13.2936C13.3636 13.2423 13.4027 13.2109 13.4251 13.1995C13.7269 12.9029 13.875 12.5806 13.8694 12.2326C13.8639 11.8846 13.7157 11.5624 13.4251 11.2657C13.2239 11.0604 12.9751 10.8037 12.6789 10.4956C12.3826 10.1876 12.0529 9.85105 11.6895 9.48597C11.3262 9.1209 10.9434 8.733 10.5409 8.32229L9.26651 7.0217C9.68013 6.61099 10.0854 6.20884 10.4822 5.81524C10.8791 5.42164 11.248 5.05371 11.5889 4.71145C11.9299 4.36919 12.2373 4.05545 12.5112 3.77024C12.7851 3.48502 13.0115 3.25114 13.1903 3.0686Z" fill="#888888"/>
</svg>
