<svg width="36" height="36" viewBox="0 0 36 36" fill="none" xmlns="http://www.w3.org/2000/svg">
<g clip-path="url(#clip0_21_17839)">
<path d="M3.512 17.7293C3.5038 17.7763 3.49852 17.8239 3.49619 17.8716C3.48427 18.683 3.63326 19.4888 3.93454 20.2423C4.23581 20.9958 4.68341 21.6822 5.25147 22.2618C6.41474 23.3855 7.94765 24.106 9.60904 24.1268L15.6488 24.1179C16.4619 24.1154 17.2661 23.9488 18.0133 23.6282C18.7605 23.3076 19.4354 22.8394 19.9974 22.2519C21.146 21.0693 21.785 19.4835 21.7774 17.835C21.7774 17.7935 21.7735 17.752 21.7666 17.7115C21.7393 17.2812 21.5457 16.8784 21.2268 16.5883C20.9079 16.2981 20.4886 16.1434 20.0577 16.1568C19.62 16.1702 19.2052 16.3558 18.9034 16.6731C18.6017 16.9904 18.4372 17.414 18.4457 17.8518C18.4501 18.6377 18.146 19.3939 17.5987 19.958C17.3457 20.2225 17.0421 20.4335 16.7059 20.5785C16.3698 20.7235 16.0079 20.7995 15.6418 20.802L9.61299 20.8139C8.84703 20.7971 8.11764 20.5045 7.60667 19.9303C7.34395 19.6567 7.1385 19.3334 7.00239 18.9794C6.86628 18.6254 6.80224 18.2477 6.81403 17.8686C6.81008 17.0819 7.11053 16.3347 7.66202 15.7615C7.91016 15.5002 8.20806 15.2912 8.53819 15.1467C8.86832 15.0023 9.22402 14.9253 9.58433 14.9204L13.3973 14.9797C13.6156 14.9845 13.8327 14.9459 14.0359 14.8662C14.2392 14.7864 14.4246 14.6671 14.5814 14.5152C14.9026 14.2078 15.0834 13.7937 15.0913 13.349C15.0996 12.9081 14.9324 12.482 14.6266 12.1644C14.3208 11.8467 13.9014 11.6635 13.4606 11.655L9.62288 11.5868C8.81019 11.5904 8.00652 11.7574 7.25964 12.0777C6.51276 12.3981 5.83791 12.8654 5.27519 13.4518C4.12477 14.6417 3.4952 16.2102 3.512 17.7293Z" fill="#49475D"/>
<path d="M16.0036 19.5322C16.2231 19.5366 16.4413 19.4978 16.6458 19.4178C16.8503 19.3378 17.037 19.2183 17.1953 19.0661C17.3535 18.9139 17.4802 18.732 17.5681 18.5308C17.656 18.3296 17.7034 18.1131 17.7075 17.8935C17.7045 17.1058 18.005 16.3567 18.5535 15.7864C18.8062 15.5215 19.1098 15.3102 19.446 15.1652C19.7822 15.0202 20.1442 14.9444 20.5104 14.9424L26.5303 14.9315C27.2925 14.9636 28.0126 15.2896 28.5397 15.841C29.0669 16.3924 29.3601 17.1264 29.3579 17.8892C29.3557 18.6521 29.0583 19.3844 28.5281 19.9328C27.9978 20.4812 27.2759 20.8031 26.5135 20.8309L22.49 20.9406C22.0496 20.9528 21.6321 21.1391 21.3288 21.4587C21.0255 21.7783 20.8613 22.205 20.8721 22.6454C20.8773 22.8637 20.9258 23.0788 21.0149 23.2782C21.104 23.4776 21.2318 23.6572 21.391 23.8067C21.7122 24.1121 22.1342 24.2732 22.579 24.2633L26.562 24.1546C29.9608 24.0864 32.6975 21.2667 32.663 17.8777C32.6674 16.1979 32.006 14.5849 30.8237 13.3917L30.8029 13.3709C30.2462 12.8117 29.5841 12.3685 28.8549 12.0669C28.1258 11.7653 27.3441 11.6112 26.555 11.6136L20.5094 11.6186C19.6967 11.6223 18.893 11.7893 18.146 12.1095C17.399 12.4297 16.7239 12.8966 16.1607 13.4826C15.0092 14.6719 14.3707 16.2658 14.3827 17.9212C14.3973 18.3455 14.573 18.7483 14.8741 19.0477C15.1753 19.347 15.5792 19.5202 16.0036 19.5322Z" fill="#49475D"/>
</g>
<defs>
<clipPath id="clip0_21_17839">
<rect width="24.9451" height="24.9451" fill="white" transform="translate(18.0811 35.3984) rotate(-135)"/>
</clipPath>
</defs>
</svg>
