<svg width="15" height="15" viewBox="0 0 15 15" fill="none" xmlns="http://www.w3.org/2000/svg">
<path d="M7.47314 2.16602C4.06724 2.16602 1.30615 4.92681 1.30615 8.33301C1.30615 11.7392 4.06724 14.5 7.47314 14.5C10.8791 14.5 13.6401 11.7386 13.6401 8.33301C13.6401 4.92739 10.8791 2.16602 7.47314 2.16602ZM7.47314 11.6351C7.33124 11.6348 7.19262 11.5924 7.07477 11.5134C6.95693 11.4343 6.86516 11.3221 6.81105 11.191C6.75695 11.0598 6.74295 10.9155 6.77081 10.7764C6.79867 10.6372 6.86714 10.5095 6.96758 10.4092C7.06803 10.309 7.19592 10.2408 7.33512 10.2132C7.47431 10.1856 7.61856 10.1999 7.74963 10.2543C7.8807 10.3087 7.99271 10.4007 8.07152 10.5187C8.15032 10.6367 8.19238 10.7754 8.19238 10.9173C8.19238 11.0117 8.17377 11.1051 8.13761 11.1923C8.10144 11.2795 8.04844 11.3587 7.98163 11.4253C7.91483 11.492 7.83553 11.5449 7.74827 11.5808C7.66102 11.6168 7.56753 11.6353 7.47314 11.6351ZM8.19238 8.52637C8.18969 8.71532 8.11273 8.89563 7.97815 9.0283C7.84358 9.16097 7.66219 9.23534 7.47322 9.23534C7.28424 9.23534 7.10286 9.16097 6.96828 9.0283C6.83371 8.89563 6.75675 8.71532 6.75405 8.52637V5.17832C6.75675 4.98936 6.83371 4.80906 6.96828 4.67639C7.10286 4.54372 7.28424 4.46935 7.47322 4.46935C7.66219 4.46935 7.84358 4.54372 7.97815 4.67639C8.11273 4.80906 8.18969 4.98936 8.19238 5.17832V8.52637Z" fill="#005F7D"/>
</svg>
