<svg width="42" height="42" viewBox="0 0 42 42" fill="none" xmlns="http://www.w3.org/2000/svg">
<circle cx="21" cy="21" r="21" fill="#005F7D"/>
<path d="M31 25.2726C31 26.063 30.3585 26.7045 29.5682 26.7045H12.4318C11.6415 26.7045 11 26.063 11 25.2726V12.4318C11 11.6415 11.6415 11 12.4318 11H29.5682C30.3585 11 31 11.6415 31 12.4318V25.2726ZM16.7045 23.142H14.551V21.0229C14.551 20.6335 14.2303 20.3127 13.8409 20.3127C13.4514 20.3127 13.1305 20.622 13.1305 21.0229V23.142C13.1305 23.9324 13.772 24.5739 14.5624 24.5739H16.7045C17.094 24.5739 17.4147 24.2417 17.4147 23.8522C17.4147 23.4628 17.1055 23.142 16.7045 23.142ZM16.7045 13.1306H14.5739C13.7835 13.1306 13.142 13.7721 13.142 14.5624V16.7159C13.142 17.1054 13.4627 17.4261 13.8522 17.4261C14.2417 17.4261 14.5624 17.1054 14.5624 16.7159V14.5624H16.7045C17.1055 14.5624 17.4262 14.2417 17.4147 13.8408C17.4147 13.4513 17.1055 13.1306 16.7045 13.1306ZM28.858 21.0344C28.858 20.6449 28.5373 20.3242 28.1478 20.3242C27.7583 20.3242 27.4376 20.6335 27.4376 21.0344V23.1535H25.2611C24.8717 23.1535 24.5509 23.4742 24.5509 23.8637C24.5509 24.2532 24.8602 24.5739 25.2611 24.5739H27.449C28.2279 24.5739 28.8695 23.9324 28.8695 23.142H28.858V21.0344ZM27.4376 13.142H25.2956C24.9062 13.142 24.5853 13.4628 24.5853 13.8522C24.5853 14.2417 24.8947 14.5624 25.2956 14.5624H27.449V16.7159C27.449 17.1054 27.7584 17.4261 28.1593 17.4261C28.5488 17.4261 28.8695 17.1168 28.8695 16.7159V14.5739C28.8695 13.7835 28.228 13.142 27.4376 13.142ZM30.2783 28.1249H11.7217C11.3208 28.1249 11 28.5029 11 28.984C11 29.4651 11.3208 29.8431 11.7217 29.8431H30.2783C30.6792 29.8431 31 29.4536 31 28.984C31 28.5029 30.6792 28.1249 30.2783 28.1249Z" fill="white"/>
</svg>
