<svg width="42" height="42" viewBox="0 0 42 42" fill="none" xmlns="http://www.w3.org/2000/svg">
<circle cx="21" cy="21" r="21" fill="#005F7D"/>
<path d="M20.2308 32.2308C20.2308 32.6615 19.8923 33 19.4615 33C19.0308 33 18.6923 32.6615 18.6923 32.2308C18.6923 30.9538 17.6615 29.9231 16.3846 29.9231H13.3077C12.0308 29.9231 11 28.8924 11 27.6154V15.3077C11 14.0308 12.0308 13 13.3077 13H16.3846C18.5077 13 20.2308 14.7231 20.2308 16.8462V32.2308ZM31 27.6154C31 28.8924 29.9693 29.9231 28.6923 29.9231H25.6154C24.3385 29.9231 23.3077 30.9538 23.3077 32.2308C23.3077 32.6615 22.9692 33 22.5385 33C22.1077 33 21.7692 32.6615 21.7692 32.2308V16.8462C21.7692 14.7231 23.4923 13 25.6154 13H28.6923C29.9693 13 31 14.0308 31 15.3077V27.6154Z" fill="white"/>
</svg>
