<svg width="42" height="42" viewBox="0 0 42 42" fill="none" xmlns="http://www.w3.org/2000/svg">
<circle cx="21" cy="21" r="21" fill="#005F7D"/>
<path d="M24.2877 22.5722C24.2518 22.6423 24.2369 22.7205 24.2444 22.7982C24.2519 22.8759 24.2817 22.9501 24.3304 23.0128C24.3791 23.0755 24.4448 23.1242 24.5206 23.1537C25.7387 23.6333 26.8104 24.398 27.6364 25.3771C28.4624 26.3563 29.0162 27.5182 29.2464 28.7554C29.2736 28.9088 29.2652 29.0659 29.2221 29.2159C29.1789 29.3658 29.1019 29.505 28.9963 29.6235C28.8907 29.7422 28.7592 29.8373 28.6109 29.9022C28.4628 29.9673 28.3016 30.0006 28.1385 30H14.9349C14.7717 30.0007 14.6104 29.9674 14.4621 29.9025C14.3139 29.8375 14.1823 29.7424 14.0767 29.6238C13.9711 29.5053 13.8939 29.3661 13.8506 29.216C13.8074 29.066 13.799 28.9089 13.8262 28.7554C14.0558 27.5173 14.6093 26.3546 15.4353 25.3746C16.2613 24.3946 17.3333 23.629 18.552 23.1488C18.627 23.1192 18.6921 23.0706 18.7403 23.0083C18.7885 22.9461 18.8181 22.8725 18.8258 22.7955C18.8335 22.7184 18.8189 22.6408 18.7839 22.571C18.7488 22.5012 18.6945 22.4419 18.6267 22.3993C17.6553 21.8008 16.9132 20.9188 16.5111 19.8849C16.1089 18.851 16.0684 17.7208 16.3956 16.6632C16.7228 15.6056 17.4001 14.6773 18.3264 14.017C19.2527 13.3568 20.3782 13 21.5347 13C22.6913 13 23.8168 13.3568 24.7431 14.017C25.6694 14.6773 26.3466 15.6056 26.6739 16.6632C27.001 17.7208 26.9606 18.851 26.5584 19.8849C26.1563 20.9188 25.4141 21.8008 24.4427 22.3993L24.4478 22.4005C24.3789 22.4427 24.3236 22.5021 24.2877 22.5722Z" fill="white"/>
<path d="M33.0438 26.6053C33.0149 26.7045 32.9637 26.7965 32.8936 26.8749C32.8236 26.9532 32.7363 27.016 32.6382 27.0589C32.54 27.1018 32.4331 27.1237 32.3251 27.1231H30.0713C29.3563 25.2276 27.9701 23.6294 26.1516 22.6039C27.0689 21.7497 27.7047 20.6589 27.9814 19.4653C28.2581 18.2716 28.1634 17.0268 27.7091 15.8837C27.8562 15.8736 28.0037 15.8722 28.151 15.8794C28.8999 15.9164 29.6173 16.179 30.1995 16.6294C30.782 17.0797 31.1994 17.6946 31.392 18.3856C31.5845 19.0766 31.5421 19.808 31.271 20.4745C30.9998 21.1411 30.5139 21.7084 29.8831 22.0949C29.8375 22.1226 29.8009 22.1618 29.7771 22.208C29.7533 22.2543 29.7433 22.3059 29.7483 22.3572C29.7532 22.4086 29.7728 22.4576 29.8051 22.499C29.8373 22.5403 29.8809 22.5724 29.9309 22.5918C30.7376 22.9091 31.4473 23.4153 31.9943 24.0636C32.5413 24.7119 32.908 25.4813 33.0603 26.3005H33.0608C33.0786 26.4021 33.0727 26.5061 33.0438 26.6053ZM12.9978 27.1249H10.7454C10.6373 27.1255 10.5303 27.1035 10.4321 27.0604C10.3338 27.0174 10.2465 26.9544 10.1765 26.8759C10.1065 26.7973 10.0553 26.7051 10.0266 26.6057C9.99791 26.5063 9.99234 26.4022 10.0103 26.3005C10.1625 25.4812 10.5292 24.7117 11.0762 24.0633C11.6231 23.4149 12.3329 22.9086 13.1396 22.5912C13.1897 22.572 13.2332 22.54 13.2655 22.4988C13.2978 22.4576 13.3176 22.4087 13.3227 22.3575C13.3279 22.3063 13.3182 22.2547 13.2947 22.2084C13.2712 22.1621 13.2348 22.1228 13.1894 22.0949C12.5307 21.6917 12.0304 21.0919 11.7669 20.3891C11.5035 19.6863 11.4916 18.9201 11.733 18.2102C11.9745 17.5002 12.4558 16.8865 13.1017 16.4648C13.7476 16.0432 14.5216 15.8373 15.3032 15.8794L15.3557 15.8831C14.9049 17.0275 14.8123 18.2721 15.0893 19.4657C15.3662 20.6594 16.0007 21.7506 16.9157 22.607H16.9138C15.0969 23.6328 13.7121 25.2305 12.9978 27.1249Z" fill="white"/>
</svg>
