<svg width="42" height="42" viewBox="0 0 42 42" fill="none" xmlns="http://www.w3.org/2000/svg">
<circle cx="21" cy="21" r="21" fill="#005F7D"/>
<path d="M30.0712 20.4153L28.614 18.9825V27.8833C28.614 29.0537 27.6554 30 26.4735 30H23.1562H22.9122V29.756V24.1134C22.9122 23.7046 22.5749 23.3718 22.1579 23.3718H20.3541C19.9372 23.3718 19.5999 23.7046 19.5999 24.1134V29.756V30H19.3559H16.0385C14.8563 30 13.8979 29.0538 13.8979 27.8833V18.9494C13.8979 18.9398 13.9195 18.9099 13.9514 18.8704L13.0404 19.7529L12.441 20.3455C12.054 20.7268 11.5995 20.8693 11.2581 20.5315C10.914 20.1918 10.914 19.6409 11.2581 19.3019L20.1667 10.5098C20.2201 10.4384 20.3143 10.3426 20.4512 10.2487C20.6775 10.0936 20.947 10 21.2555 10C21.5443 10 21.8073 10.0931 22.0396 10.2463C22.1775 10.3373 22.277 10.4294 22.3214 10.4823L31.2538 19.3008C31.5979 19.6405 31.5979 20.1918 31.2538 20.5315C30.9581 20.8234 30.5427 20.7259 30.0712 20.4153Z" fill="white"/>
</svg>
