<svg width="22" height="22" viewBox="0 0 22 22" fill="none" xmlns="http://www.w3.org/2000/svg">
<path d="M15.1746 5.66945C13.9971 5.95451 12.7819 6.12554 11.5289 6.16355V10.4774H15.7853C15.7476 8.69738 15.5272 7.08206 15.1746 5.66945ZM11.5226 0.0126695V5.20069C12.6875 5.16268 13.8208 5.01065 14.9101 4.7446C14.0853 2.12209 12.8008 0.399079 11.5226 0.0126695ZM7.05838 4.73827C8.16027 5.00432 9.29994 5.16268 10.4711 5.20069V0C9.1929 0.37374 7.88952 2.09675 7.05838 4.73827ZM18.8454 3.23697C17.4224 1.78002 15.6027 0.715808 13.5627 0.228045C14.4946 1.19724 15.2753 2.67953 15.8357 4.49122C16.8872 4.16815 17.8947 3.75007 18.8454 3.23697ZM16.7487 10.4774H21.9937C21.8804 8.01958 20.9674 5.76447 19.5066 3.97812C18.4299 4.57357 17.2902 5.06133 16.1002 5.4224C16.4843 6.9427 16.7109 8.65937 16.7487 10.4774ZM6.18317 10.4774H10.4774V6.16355C9.21179 6.12554 7.98397 5.95451 6.80023 5.66312C6.44133 7.07573 6.22095 8.69738 6.18317 10.4774ZM15.7853 11.5289H11.5226V15.8365C12.7756 15.8745 13.9971 16.0392 15.1746 16.3305C15.5272 14.9243 15.7476 13.3026 15.7853 11.5289ZM6.80023 16.3369C7.98397 16.0455 9.21179 15.8745 10.4774 15.8365V11.5289H6.18317C6.22095 13.309 6.44133 14.9306 6.80023 16.3369ZM10.4774 22V16.7993C9.30624 16.8373 8.16027 16.9957 7.05838 17.2617C7.88952 19.9033 9.1929 21.6326 10.4774 22ZM13.5627 21.7783C15.6027 21.2842 17.4224 20.2263 18.8517 18.763C17.901 18.2499 16.8935 17.8318 15.842 17.5088C15.2816 19.3268 14.4946 20.8028 13.5627 21.7783ZM8.39954 0.240715C6.37836 0.734812 4.57126 1.79269 3.15455 3.24331C4.09903 3.75007 5.09387 4.16815 6.1328 4.48488C6.69319 2.67953 7.47395 1.20991 8.39954 0.240715ZM16.1002 16.5839C17.2965 16.945 18.4362 17.4328 19.5129 18.0282C20.9737 16.2419 21.8867 13.9868 22 11.5289H16.755C16.7109 13.347 16.4843 15.0573 16.1002 16.5839ZM11.5226 16.7993V21.9937C12.8008 21.6073 14.0853 19.8842 14.9101 17.2554C13.8208 16.9893 12.6875 16.8373 11.5226 16.7993ZM5.87464 5.41607C4.6909 5.055 3.55753 4.57357 2.49342 3.97812C1.03263 5.76447 0.119633 8.01958 0.00629615 10.4774H5.2261C5.25758 8.65304 5.49055 6.93637 5.87464 5.41607ZM5.2198 11.5289H0C0.113337 13.9868 1.02633 16.2419 2.48712 18.0282C3.55123 17.4391 4.6846 16.9513 5.86835 16.5903C5.49055 15.07 5.25758 13.3533 5.2198 11.5289ZM3.14825 18.763C4.56497 20.2136 6.37207 21.2715 8.39954 21.7656C7.47395 20.7964 6.69319 19.3205 6.1328 17.5151C5.09387 17.8382 4.09273 18.2563 3.14825 18.763Z" fill="#005F7D"/>
</svg>
