<svg width="16" height="16" viewBox="0 0 16 16" fill="none" xmlns="http://www.w3.org/2000/svg">
<path fill-rule="evenodd" clip-rule="evenodd" d="M6.91485 2.40066C5.71761 2.40066 4.56941 2.87626 3.72283 3.72283C2.87626 4.56941 2.40066 5.71761 2.40066 6.91485C2.40066 8.11209 2.87626 9.26029 3.72283 10.1069C4.56941 10.9534 5.71761 11.429 6.91485 11.429C8.11209 11.429 9.26029 10.9534 10.1069 10.1069C10.9534 9.26029 11.429 8.11209 11.429 6.91485C11.429 5.71761 10.9534 4.56941 10.1069 3.72283C9.26029 2.87626 8.11209 2.40066 6.91485 2.40066ZM0 6.91485C0 3.09589 3.09589 0 6.91485 0C10.7338 0 13.8297 3.09589 13.8297 6.91485C13.8297 8.39077 13.3673 9.75867 12.5794 10.8817L15.6336 13.9363C15.7482 14.047 15.8396 14.1795 15.9026 14.3259C15.9655 14.4724 15.9986 14.6299 16 14.7892C16.0013 14.9486 15.971 15.1067 15.9106 15.2542C15.8503 15.4017 15.7611 15.5357 15.6484 15.6484C15.5357 15.7611 15.4017 15.8503 15.2542 15.9106C15.1067 15.971 14.9486 16.0013 14.7892 16C14.6299 15.9986 14.4724 15.9655 14.3259 15.9025C14.1795 15.8396 14.047 15.7482 13.9363 15.6336L10.8817 12.5794C9.71999 13.3953 8.33443 13.832 6.91485 13.8297C3.09589 13.8297 0 10.7338 0 6.91485Z" fill="#005F7D"/>
</svg>
