<svg width="42" height="42" viewBox="0 0 42 42" fill="none" xmlns="http://www.w3.org/2000/svg">
<circle cx="21" cy="21" r="21" fill="#005F7D"/>
<path d="M12.6903 29C12.1448 29 11.8267 28.4091 12.0994 27.9545L13.9631 24.8181C14.0994 24.6364 14.3268 24.5 14.554 24.5H18.8267C16.8267 21.9545 14.1449 18.0909 14.1449 15.7273C14.1449 12 17.1904 9 20.9176 9C24.6449 9 27.645 12 27.6904 15.7273C27.6904 18.0909 25.0085 21.9545 23.0085 24.5H27.2812C27.554 24.5 27.7357 24.5909 27.8721 24.8181L29.7357 27.9545C30.0085 28.4091 29.6903 29 29.1449 29H12.6903ZM20.9176 13.5455C19.6904 13.5455 18.6903 14.5455 18.6903 15.7727C18.6903 17 19.6904 18 20.9176 18C22.1449 18 23.1449 17 23.1449 15.7727C23.1449 14.5455 22.1449 13.5455 20.9176 13.5455Z" fill="white"/>
</svg>
