<svg width="15" height="15" viewBox="0 0 15 15" fill="none" xmlns="http://www.w3.org/2000/svg">
<g clip-path="url(#clip0_21_15833)">
<path d="M4 7.32099V7.67901C4 7.85802 4.26854 8 4.60714 8H20.3929C20.7315 8 21 7.85802 21 7.67901V7.32099C21 7.14198 20.7315 7 20.3929 7H4.60714C4.26854 7.00617 4 7.14815 4 7.32099Z" fill="black"/>
<path d="M2.15242 7.77797C2.00242 7.62797 2.00242 7.38047 2.15242 7.23047L7.56742 1.83047C7.71742 1.68047 7.71742 1.43297 7.56742 1.28297L7.25242 0.967969C7.10242 0.817969 6.85492 0.817969 6.70492 0.967969L0.622422 7.02797C0.742422 6.91547 0.899922 6.84797 1.07242 6.84797C0.712422 6.84797 0.419922 7.14047 0.419922 7.50047C0.419922 7.86047 0.712422 8.15297 1.07242 8.15297C0.892422 8.15297 0.734922 8.08547 0.614922 7.96547L6.68242 14.033C6.83242 14.183 7.07992 14.183 7.22992 14.033L7.54492 13.718C7.69492 13.568 7.69492 13.3205 7.54492 13.1705L2.15242 7.77797Z" fill="black"/>
</g>
<defs>
<clipPath id="clip0_21_15833">
<rect width="15" height="15" fill="white"/>
</clipPath>
</defs>
</svg>
