<svg width="27" height="23" viewBox="0 0 27 23" fill="none" xmlns="http://www.w3.org/2000/svg">
<rect width="27" height="23" rx="3" fill="#005F7D"/>
<rect width="27" height="23" rx="3" fill="#005F7D"/>
<rect width="27" height="23" rx="3" fill="#005F7D"/>
<rect width="27" height="23" rx="3" fill="#005F7D"/>
<rect width="27" height="23" rx="3" fill="#005F7D"/>
<path d="M11.1139 16.0845C11.8024 16.0845 12.3606 16.6424 12.3606 17.3306C12.3606 18.0187 11.8024 18.5766 11.1139 18.5766C10.4253 18.5766 9.86717 18.0187 9.86717 17.3306C9.86717 16.6424 10.4253 16.0845 11.1139 16.0845ZM16.3443 16.0845C17.0329 16.0845 17.591 16.6424 17.591 17.3306C17.591 18.0187 17.0329 18.5766 16.3443 18.5766C15.6558 18.5766 15.0976 18.0187 15.0976 17.3306C15.0976 16.6424 15.6558 16.0845 16.3443 16.0845ZM11.1139 17.1157C10.9952 17.1157 10.8989 17.2119 10.8989 17.3306C10.8989 17.4492 10.9952 17.5454 11.1139 17.5454C11.2326 17.5454 11.3288 17.4492 11.3288 17.3306C11.3288 17.2119 11.2326 17.1157 11.1139 17.1157ZM16.3443 17.1157C16.2256 17.1157 16.1294 17.2119 16.1294 17.3306C16.1294 17.4492 16.2256 17.5454 16.3443 17.5454C16.463 17.5454 16.5593 17.4492 16.5593 17.3306C16.5593 17.2119 16.463 17.1157 16.3443 17.1157ZM8.19324 5.94336C8.44105 5.94336 8.65346 6.11938 8.6999 6.36196L8.70127 6.36933L8.99805 8.04973H19.4683C19.8011 8.04973 20.0459 8.35978 19.9707 8.6821L19.9684 8.69187L18.822 13.2177C18.7646 13.4442 18.5621 13.6035 18.3289 13.6067L18.3219 13.6068H9.97956L10.1996 14.8528H17.5767C17.8588 14.8528 18.088 15.0791 18.0926 15.3599V15.3684C18.0926 15.6503 17.8662 15.8794 17.5852 15.884H9.76686C9.51905 15.884 9.30664 15.708 9.26019 15.4654L9.25883 15.458L7.76044 6.97456H6.67604C6.39398 6.97456 6.16478 6.74831 6.16016 6.4675V6.45896C6.16016 6.17706 6.38653 5.94799 6.66751 5.94336H8.19324Z" fill="#FDFDFE"/>
</svg>
