<svg width="28" height="23" viewBox="0 0 28 23" fill="none" xmlns="http://www.w3.org/2000/svg">
<rect width="28" height="23" rx="3" fill="#005F7D"/>
<rect width="28" height="23" rx="3" fill="#005F7D"/>
<rect width="28" height="23" rx="3" fill="#005F7D"/>
<rect width="28" height="23" rx="3" fill="#005F7D"/>
<rect width="28" height="23" rx="3" fill="#005F7D"/>
<path d="M8.52045 12.6986L8.57386 12.6134L11.7936 7.50398C11.8043 7.48697 11.8192 7.47319 11.8369 7.46412C11.8547 7.45504 11.8745 7.451 11.8943 7.45243C11.9141 7.45386 11.9331 7.4607 11.9494 7.47223C11.9657 7.48376 11.9785 7.49955 11.9867 7.51791C12.5246 8.74089 12.9892 10.2619 12.7718 11.2085C12.6787 11.5986 12.4246 12.1258 12.1385 12.6134C12.1013 12.6847 12.0608 12.7542 12.0172 12.8216C12.0071 12.8368 11.9935 12.8492 11.9775 12.8577C11.9615 12.8662 11.9437 12.8706 11.9256 12.8704H8.6143C8.59443 12.8707 8.57486 12.8655 8.55767 12.8554C8.54049 12.8452 8.52632 12.8306 8.51669 12.813C8.50707 12.7953 8.50233 12.7754 8.50299 12.7552C8.50365 12.7351 8.50969 12.7155 8.52045 12.6986Z" fill="#FDFDFE"/>
<path d="M22.8729 13.6485V14.4573C22.8729 14.4799 22.8663 14.5019 22.8542 14.5207C22.842 14.5396 22.8246 14.5544 22.8043 14.5634C22.5548 14.6718 21.7018 15.0688 21.347 15.5696C20.4413 16.8476 19.7501 18.6759 18.2035 18.6759H11.7525C9.4658 18.6759 7.61328 16.7895 7.61328 14.4628V14.3877C7.61328 14.3258 7.66288 14.2754 7.72391 14.2754H11.3199C11.3916 14.2754 11.4435 14.3428 11.4374 14.4132C11.4114 14.6509 11.4549 14.8931 11.5655 15.1137C11.7792 15.5542 12.2217 15.8289 12.7001 15.8289H14.4801V14.4186H12.7199C12.6994 14.4182 12.6795 14.4122 12.6621 14.4012C12.6447 14.3902 12.6306 14.3746 12.6212 14.3561C12.6118 14.3377 12.6075 14.317 12.6088 14.2962C12.61 14.2755 12.6168 14.2555 12.6284 14.2383C12.6474 14.2081 12.6696 14.1771 12.6925 14.1423C12.8588 13.9024 13.0968 13.53 13.3334 13.1051C13.4944 12.8187 13.6508 12.513 13.7767 12.2064C13.8026 12.1507 13.8224 12.0942 13.843 12.0385C13.8774 11.9402 13.9132 11.8488 13.9384 11.7575C13.9636 11.6801 13.9842 11.5988 14.0048 11.5222C14.0643 11.2621 14.0895 10.9858 14.0895 10.6994C14.0895 10.5872 14.0849 10.4695 14.0742 10.3573C14.0676 10.2343 14.0558 10.1116 14.0391 9.9896C14.0273 9.87978 14.0108 9.77053 13.9895 9.66218C13.9628 9.49737 13.9287 9.33388 13.8873 9.17221L13.8736 9.11029C13.843 8.99805 13.8179 8.89046 13.782 8.77823C13.6837 8.43471 13.5709 8.09563 13.444 7.76191C13.399 7.6342 13.3486 7.5119 13.2975 7.38883C13.2227 7.20461 13.1464 7.03664 13.0762 6.87796C13.0429 6.81012 13.0106 6.74173 12.9793 6.67284C12.9455 6.59741 12.9104 6.52258 12.874 6.44837C12.8489 6.39341 12.8191 6.34155 12.7993 6.28969L12.5818 5.88255C12.5751 5.87021 12.5721 5.85615 12.5732 5.84209C12.5742 5.82803 12.5794 5.81461 12.5879 5.80348C12.5964 5.79235 12.608 5.78401 12.6212 5.77949C12.6343 5.77497 12.6485 5.77447 12.6619 5.77805L14.0223 6.15191H14.0262L14.0315 6.15346L14.2108 6.20377L14.4076 6.26028L14.4801 6.28118V5.4607C14.4801 5.06439 14.793 4.74316 15.1798 4.74316C15.3728 4.74316 15.5483 4.82289 15.6742 4.9537C15.8054 5.08885 15.8789 5.271 15.8787 5.4607V6.67826L16.0236 6.71928C16.0351 6.72315 16.0465 6.72857 16.0572 6.73631C16.0923 6.7634 16.1434 6.80365 16.2083 6.85242C16.2594 6.89344 16.3136 6.94376 16.38 6.99562C16.5112 7.10243 16.6676 7.24099 16.8393 7.39966C16.8851 7.43914 16.9293 7.48094 16.9697 7.52196C17.191 7.73095 17.439 7.97632 17.6755 8.24724C17.7419 8.32309 17.8067 8.4005 17.8731 8.48177C17.9387 8.56459 18.0089 8.64587 18.07 8.72714C18.1501 8.83551 18.2363 8.94774 18.3118 9.06462C18.3469 9.12035 18.3881 9.17686 18.4225 9.23259C18.5186 9.3812 18.6041 9.53446 18.6857 9.68772C18.72 9.75893 18.7551 9.83634 18.7856 9.91219C18.8764 10.1173 18.9474 10.3263 18.9932 10.5353C19.0069 10.581 19.0176 10.6297 19.0222 10.6738V10.6839C19.0374 10.7458 19.0428 10.8116 19.0481 10.879C19.0788 11.188 19.041 11.5 18.9375 11.7923C18.907 11.8798 18.8764 11.9711 18.8368 12.0578C18.7605 12.2374 18.6704 12.4162 18.5636 12.5842C18.5293 12.6461 18.4881 12.7119 18.4476 12.7738C18.4034 12.8396 18.3576 12.9015 18.3164 12.9619C18.2607 13.0393 18.2012 13.1206 18.1402 13.1933C18.0871 13.2696 18.0298 13.3428 17.9685 13.4124C17.883 13.5146 17.8014 13.6113 17.7167 13.7042C17.6655 13.766 17.6115 13.8254 17.555 13.8822C17.5 13.9442 17.4443 13.9991 17.3932 14.051C17.3228 14.1223 17.2508 14.192 17.1773 14.26L17.0376 14.39C17.0167 14.4085 16.9899 14.4187 16.9621 14.4186H15.8787V15.8289H17.2421C17.5473 15.8289 17.8373 15.719 18.0715 15.5178C18.1516 15.4466 18.5011 15.14 18.9146 14.6764C18.9284 14.6609 18.9465 14.6499 18.9665 14.6447L22.7318 13.5401C22.7483 13.5355 22.7656 13.5348 22.7824 13.538C22.7993 13.5413 22.8151 13.5484 22.8288 13.5589C22.8424 13.5694 22.8535 13.5829 22.8612 13.5985C22.8688 13.614 22.8729 13.6311 22.8729 13.6485Z" fill="#FDFDFE"/>
</svg>
