<svg width="28" height="21" viewBox="0 0 28 21" fill="none" xmlns="http://www.w3.org/2000/svg">
<path d="M3.85585 0.724609C4.45318 0.724609 4.95985 0.882943 5.37585 1.19961C5.79185 1.51628 5.99985 1.90794 5.99985 2.37461V3.64961C5.99985 4.11628 5.79185 4.51211 5.37585 4.83711C4.95985 5.16211 4.45318 5.32461 3.85585 5.32461H2.15985C1.58385 5.32461 1.08785 5.16211 0.671851 4.83711C0.255851 4.51211 0.0478516 4.11628 0.0478516 3.64961V2.37461C0.0478516 1.90794 0.255851 1.51628 0.671851 1.19961C1.08785 0.882943 1.58385 0.724609 2.15985 0.724609H3.85585ZM25.8079 0.724609C26.3839 0.724609 26.8799 0.882943 27.2959 1.19961C27.7119 1.51628 27.9199 1.90794 27.9199 2.37461V3.64961C27.9199 4.11628 27.7119 4.51211 27.2959 4.83711C26.8799 5.16211 26.3839 5.32461 25.8079 5.32461H12.1439C11.5465 5.32461 11.0399 5.16211 10.6239 4.83711C10.2079 4.51211 9.99985 4.11628 9.99985 3.64961V2.37461C9.99985 1.90794 10.2079 1.51628 10.6239 1.19961C11.0399 0.882943 11.5465 0.724609 12.1439 0.724609H25.8079ZM3.85585 8.49961C4.45318 8.49961 4.95985 8.66211 5.37585 8.98711C5.79185 9.31211 5.99985 9.70794 5.99985 10.1746V11.4496C5.99985 11.8996 5.79185 12.2871 5.37585 12.6121C4.95985 12.9371 4.45318 13.0996 3.85585 13.0996H2.15985C1.58385 13.0996 1.08785 12.9371 0.671851 12.6121C0.255851 12.2871 0.0478516 11.8996 0.0478516 11.4496V10.1746C0.0478516 9.70794 0.255851 9.31211 0.671851 8.98711C1.08785 8.66211 1.58385 8.49961 2.15985 8.49961H3.85585ZM25.8079 8.49961C26.3839 8.49961 26.8799 8.66211 27.2959 8.98711C27.7119 9.31211 27.9199 9.70794 27.9199 10.1746V11.4496C27.9199 11.8996 27.7119 12.2871 27.2959 12.6121C26.8799 12.9371 26.3839 13.0996 25.8079 13.0996H12.1439C11.5465 13.0996 11.0399 12.9371 10.6239 12.6121C10.2079 12.2871 9.99985 11.8996 9.99985 11.4496V10.1746C9.99985 9.70794 10.2079 9.31211 10.6239 8.98711C11.0399 8.66211 11.5465 8.49961 12.1439 8.49961H25.8079ZM3.85585 16.2996C4.45318 16.2996 4.95985 16.4621 5.37585 16.7871C5.79185 17.1121 5.99985 17.4996 5.99985 17.9496V19.2246C5.99985 19.6913 5.79185 20.0871 5.37585 20.4121C4.95985 20.7371 4.45318 20.8996 3.85585 20.8996H2.15985C1.58385 20.8996 1.08785 20.7371 0.671851 20.4121C0.255851 20.0871 0.0478516 19.6913 0.0478516 19.2246V17.9496C0.0478516 17.4996 0.255851 17.1121 0.671851 16.7871C1.08785 16.4621 1.58385 16.2996 2.15985 16.2996H3.85585ZM25.8079 16.2996C26.3839 16.2996 26.8799 16.4621 27.2959 16.7871C27.7119 17.1121 27.9199 17.4996 27.9199 17.9496V19.2246C27.9199 19.6913 27.7119 20.0871 27.2959 20.4121C26.8799 20.7371 26.3839 20.8996 25.8079 20.8996H12.1439C11.5465 20.8996 11.0399 20.7371 10.6239 20.4121C10.2079 20.0871 9.99985 19.6913 9.99985 19.2246V17.9496C9.99985 17.4996 10.2079 17.1121 10.6239 16.7871C11.0399 16.4621 11.5465 16.2996 12.1439 16.2996H25.8079Z" fill="#005F7D"/>
</svg>
