<svg width="32" height="31" viewBox="0 0 32 31" fill="none" xmlns="http://www.w3.org/2000/svg">
<path d="M23.8655 27.3962C23.8655 27.6675 23.75 27.9387 23.2282 28.3224C20.9809 29.5791 18.4124 30.2387 15.797 30.2308C13.1893 30.2383 10.6258 29.5987 8.36582 28.3766C8.01726 28.1054 7.84194 27.8302 7.84194 27.4486C7.84194 26.9061 8.17194 26.5011 8.70407 26.4236L8.88969 26.412H9.23619L9.35169 26.4662C13.0312 28.4561 17.8327 28.5355 21.6029 26.7065L22.0649 26.4662L22.3558 26.3577H22.6445C23.2839 26.3577 23.7521 26.8479 23.8655 27.3962ZM15.7743 0C18.0018 0 19.7591 1.71662 19.8766 3.76844C19.8766 5.38431 18.8371 6.8045 17.2985 7.33537L17.0036 7.4245H16.9458V11.1367H17.0036C19.8168 11.6928 21.8092 13.9616 21.8092 16.6199C21.8092 17.0655 21.737 17.5421 21.5864 18.0594L21.4586 18.4489V18.507L24.7998 20.3341L24.8596 20.2779C25.599 19.6072 26.5853 19.2304 27.6131 19.2258C28.139 19.2258 28.9021 19.2258 29.6075 19.6714C30.5418 20.1674 31.2451 21.0529 31.4823 22.0507C31.7154 23.0485 31.7154 23.8235 30.9523 25.0441C30.251 26.0962 29.3126 26.6503 28.0813 26.8169C27.9637 26.8731 27.7884 26.8731 27.6131 26.8731C26.7344 26.8731 25.7981 26.6503 25.2103 26.2609C23.8428 25.3832 23.1374 23.9242 23.3334 22.4731L23.3953 22.1631V22.1049L20.1118 20.3341L20.0519 20.3902C19.4976 21.005 18.8058 21.4974 18.0258 21.8322C17.2458 22.1671 16.3968 22.3363 15.5392 22.3277C13.9649 22.3097 12.4613 21.7113 11.3523 20.6615L11.0842 20.3902L11.0244 20.3321L7.74501 22.1069V22.1631C8.21319 23.8797 7.45213 25.5421 5.92794 26.3171C5.57526 26.4275 4.87194 26.7627 3.93351 26.7627C2.40932 26.7627 1.06251 26.04 0.474694 24.8213C-0.0512433 23.9901 -0.0512433 22.9381 0.183882 21.9402C0.419007 20.9444 1.06251 20.1132 1.99888 19.6676C2.41138 19.5009 3.17244 19.2258 3.99332 19.2258C4.81213 19.2258 5.72582 19.5222 6.44769 20.0047L6.74676 20.2217L6.80657 20.2798L10.1478 18.4489V18.3946C9.90735 17.8116 9.78765 17.1908 9.79513 16.5656C9.79513 14.0178 11.6246 11.7742 14.2543 11.1522L14.6008 11.0806H14.7204V7.47875H14.6606C12.9013 6.92656 11.7896 5.48506 11.7896 3.82462C11.7896 1.71662 13.5448 0 15.7743 0ZM2.99713 21.4423C2.52894 21.7194 2.23401 22.0507 2.11851 22.4944C1.99888 22.94 2.11851 23.3798 2.35363 23.7692C2.51543 24.0306 2.74533 24.249 3.0217 24.4039C3.29807 24.5588 3.61185 24.6451 3.93351 24.6547C4.34601 24.6547 4.57907 24.5985 4.87194 24.3776C5.28238 24.1567 5.63507 23.8235 5.75263 23.3798C5.81038 22.9923 5.81038 22.4944 5.45769 22.0507C5.29553 21.7888 5.06498 21.5701 4.78783 21.4151C4.51068 21.2602 4.19606 21.1742 3.87369 21.1652C3.52307 21.1652 3.29001 21.2757 2.99713 21.4423ZM27.5533 21.1652C27.239 21.2009 26.9378 21.3045 26.6734 21.4678C26.4089 21.6312 26.1884 21.85 26.0291 22.1069C25.8933 22.2578 25.8005 22.4387 25.7594 22.6325C25.7183 22.8263 25.7301 23.0268 25.7939 23.2151C25.9136 23.715 26.2642 24.0482 26.6746 24.3234C26.9675 24.5462 27.3779 24.6004 27.7286 24.6004C28.3164 24.6004 28.8423 24.3234 29.1929 23.7673C29.6054 22.9381 29.4879 22.1069 28.7846 21.5527C28.6489 21.4202 28.4842 21.317 28.3019 21.2501C28.1195 21.1832 27.9239 21.1542 27.7286 21.1652H27.5533ZM10.2262 5.02587C10.3994 5.24481 10.3994 5.51606 10.3417 5.78925C10.2262 6.00819 10.1086 6.22712 9.81782 6.38987C6.07438 8.3855 3.62001 12.0512 3.44469 16.0696L3.43438 16.5385V16.7555C3.49419 17.0287 3.37457 17.2457 3.14563 17.4646C2.91257 17.6274 2.67951 17.7921 2.33301 17.8463C2.10204 17.8516 1.87499 17.7896 1.68298 17.6689C1.49098 17.5482 1.34341 17.3746 1.26051 17.1721L1.22544 17.0287V16.5908C1.23444 14.1551 1.93247 11.7655 3.24803 9.66663C4.5636 7.56776 6.44941 5.8351 8.71232 4.64612C9.00519 4.4795 9.23619 4.42719 9.58476 4.53375C9.87969 4.59187 10.0529 4.75269 10.2283 5.02587H10.2262ZM21.1739 5.02587C21.0007 5.24481 21.0007 5.51606 21.0584 5.78925C21.1739 6.00819 21.2915 6.22712 21.5803 6.38987C25.3258 8.3855 27.7801 12.0512 27.9575 16.0696L27.9678 16.5385V16.7555C27.9059 17.0287 28.0256 17.2457 28.2566 17.4646C28.4876 17.6274 28.7206 17.7921 29.0692 17.8463C29.3002 17.8516 29.5272 17.7896 29.7192 17.6689C29.9112 17.5482 30.0588 17.3746 30.1417 17.1721L30.1768 17.0287V16.5908C30.1675 14.155 29.4692 11.7652 28.1533 9.66629C26.8373 7.5674 24.9511 5.83485 22.6878 4.64612C22.3949 4.4795 22.1639 4.42719 21.8133 4.53375C21.5204 4.59187 21.3451 4.75269 21.1739 5.02587ZM13.8995 3.82462C13.8995 4.71006 14.7183 5.54125 15.7145 5.54125C16.7128 5.54125 17.5295 4.76431 17.5295 3.82462C17.5295 3.37099 17.3388 2.93571 16.9989 2.61349C16.659 2.29128 16.1974 2.10821 15.7145 2.10412C15.2316 2.10821 14.77 2.29128 14.4301 2.61349C14.0902 2.93571 13.8995 3.37099 13.8995 3.82462Z" fill="#005F7D"/>
</svg>
