<svg width="30" height="20" viewBox="0 0 30 20" fill="none" xmlns="http://www.w3.org/2000/svg">
<path d="M14.9998 0.470703C20.1943 0.470703 24.8286 3.3632 28.8923 9.01383C29.0714 9.26251 29.1666 9.55106 29.1666 9.8457C29.1666 10.1404 29.0714 10.4289 28.8923 10.6776C24.8286 16.3282 20.1943 19.2207 14.9998 19.2207C9.80522 19.2207 5.17095 16.3282 1.10724 10.6776C0.928131 10.4289 0.833008 10.1404 0.833008 9.8457C0.833008 9.55106 0.928131 9.26251 1.10724 9.01383C5.17095 3.3632 9.80522 0.470703 14.9998 0.470703ZM14.9998 4.2207C11.479 4.2207 8.62478 6.73914 8.62478 9.8457C8.62478 12.9523 11.479 15.4707 14.9998 15.4707C18.5206 15.4707 21.3748 12.9523 21.3748 9.8457C21.3748 6.73914 18.5206 4.2207 14.9998 4.2207ZM14.9998 13.5957C17.3468 13.5957 19.2498 11.9166 19.2498 9.8457C19.2498 7.77477 17.3468 6.0957 14.9998 6.0957C12.6527 6.0957 10.7498 7.77477 10.7498 9.8457C10.7498 11.9166 12.6527 13.5957 14.9998 13.5957Z" fill="#005F7D"/>
</svg>
